<?xml version="1.0" encoding="utf-8"?>
<!-- Generator: Adobe Illustrator 16.0.0, SVG Export Plug-In . SVG Version: 6.00 Build 0)  -->
<!DOCTYPE svg PUBLIC "-//W3C//DTD SVG 1.1//EN" "http://www.w3.org/Graphics/SVG/1.1/DTD/svg11.dtd">
<svg version="1.1" id="Layer_1" xmlns="http://www.w3.org/2000/svg" xmlns:xlink="http://www.w3.org/1999/xlink" x="0px" y="0px"
	 width="244px" height="244px" viewBox="0 0 244 244" enable-background="new 0 0 244 244" xml:space="preserve">
<g>
	<circle fill="#20202A" stroke="#FFFFFF" stroke-miterlimit="10" cx="122" cy="122" r="115.97"/>
	<g>
		<defs>
			<rect id="SVGID_1_" x="7.094" y="7.094" width="229.812" height="229.812"/>
		</defs>
		<clipPath id="SVGID_2_">
			<use xlink:href="#SVGID_1_"  overflow="visible"/>
		</clipPath>
		<path clip-path="url(#SVGID_2_)" fill="#FFFFFF" d="M189.47,160.996c-2.19,3.812-4.709,7.428-7.499,10.825
			c-1.541-7.303-4.098-14.295-6.234-20.069c-5.631-15.269-8.99-25.847-4.609-33.48c0.402-0.706,6.485-10.29,18.225-8.475
			c5.199,1.223,9.34,4.01,10.529,13.459C201.071,132.71,196.055,149.571,189.47,160.996 M157.627,189.235
			c-0.833,1.436-1.943,3.055-3.849,4.048c-8.623,4.279-22.606,7.192-34.451,6.816c1.177-1.448,2.22-2.996,3.147-4.613
			c5.953-10.375,6.704-23.338,2.03-35.554c-8.827-23.154-32.261-27.188-51.076-30.431c-22.46-3.852-29.844-6.986-29.238-16.898
			c1.284-10.505,4.593-20.45,9.852-29.581c0.48-0.857,0.992-1.691,1.515-2.525c5.089,12.95,17.119,22.256,32.249,24.672
			c24.463,3.914,39.671-14.337,51.88-29.028c13.917-16.703,20.431-22.016,27.71-17.58c8.418,5.732,15.654,13.092,23.248,26.55
			c-13.611-1.879-27.548,3.927-37.076,15.646c-1.418,1.749-2.673,3.593-3.762,5.458c-10.316,17.969-2.949,37.95,2.956,54.001
			C158.72,176.321,160.686,183.9,157.627,189.235 M101.161,183.423c-0.761,1.476-7.434,12.731-21.088,4.704
			c-7.965-5.042-14.91-11.407-20.614-18.945c-4.709-6.216-8.438-13.034-11.095-20.331c7.192,2.419,14.703,3.703,20.896,4.773
			c17.744,3.059,28.769,5.598,32.398,15.048C103.68,173.981,103.328,179.261,101.161,183.423 M85.119,52.99
			c10.28-6.177,29.987-10.969,50.032-7.943c-5.557,4.969-10.311,10.699-14.276,15.436C109.368,74.33,101.65,82.617,91.654,81.023
			c-7.243-1.171-11.967-5.804-13.925-11.355C75.94,64.603,77.437,57.589,85.119,52.99 M123.468,21.07
			C67.741,20.26,21.896,64.789,21.081,120.53c-0.818,55.731,43.709,101.581,99.452,102.398
			c55.72,0.806,101.574-43.724,102.385-99.457C223.743,67.729,179.194,21.884,123.468,21.07"/>
	</g>
</g>
</svg>
