<?xml version="1.0" encoding="UTF-8" standalone="no"?>
<svg width="512px" height="512px" viewBox="0 0 512 512" version="1.1" xmlns="http://www.w3.org/2000/svg" xmlns:xlink="http://www.w3.org/1999/xlink" xmlns:sketch="http://www.bohemiancoding.com/sketch/ns">
    <title>Untitled</title>
    <description>Created with Sketch (http://www.bohemiancoding.com/sketch)</description>
    <defs></defs>
    <g id="Page-1" stroke="none" stroke-width="1" fill="none" fill-rule="evenodd" sketch:type="MSPage">
        <path d="M423.042432,353.809165 C417.615082,363.249336 411.375765,372.223695 404.461236,380.629678 C400.644996,362.548482 394.311663,345.219422 389.012518,330.898909 C375.059526,293.061302 366.743287,266.860447 377.593714,247.933097 C378.593714,246.189507 393.666364,222.437371 422.756107,226.937371 C435.640723,229.967285 445.897133,236.868995 448.845851,260.292071 C451.790295,283.723695 439.362945,325.505747 423.042432,353.809165 M344.140723,423.783524 C342.080894,427.33908 339.33303,431.3519 334.610808,433.817712 C313.243287,444.416003 278.593714,451.638225 249.243287,450.702328 C252.157817,447.121131 254.743287,443.292071 257.042432,439.274977 C271.790295,413.561302 273.64927,381.450191 262.072347,351.185234 C240.196278,293.809165 182.136449,283.809165 135.508244,275.779251 C79.862945,266.232242 61.5595261,258.458738 63.0595261,233.903183 C66.2475603,207.873268 74.4441415,183.232242 87.4655091,160.608311 C88.6620902,158.484379 89.9270475,156.41173 91.2219193,154.356174 C103.83303,186.441644 133.640723,209.492926 171.132176,215.488653 C231.74756,225.18096 269.427048,179.958738 299.683458,143.557029 C334.166364,102.16814 350.307389,89.0100201 368.345851,99.9929261 C389.200552,114.198054 407.136449,132.433097 425.952689,165.783524 C392.226193,161.121131 357.683458,175.51002 334.07662,204.548482 C330.5638,208.881815 327.456962,213.450191 324.756107,218.074123 C299.192005,262.59549 317.448415,312.099764 332.085167,351.873268 C346.850124,391.796345 351.717646,410.561302 344.140723,423.783524 M204.226193,409.390362 C202.345851,413.039935 185.811663,440.941644 151.97833,421.044208 C132.23474,408.548482 115.029612,392.774977 100.897133,374.104037 C89.2261928,358.702328 79.9868766,341.792071 73.40568,323.732242 C91.2261928,329.715148 109.837304,332.903183 125.183458,335.548482 C169.144996,343.138225 196.465509,349.420277 205.456962,372.847627 C210.469783,385.988653 209.602261,399.074123 204.226193,409.390362 M164.47833,86.1895073 C189.952689,70.8775415 238.790295,59.0142936 288.452689,66.5100201 C274.683458,78.8177125 262.90568,93.0185672 253.080894,104.75361 C224.572347,139.065576 205.444142,159.59549 180.679184,155.646772 C162.730466,152.749336 151.021065,141.270704 146.174911,127.51002 C141.73474,114.963012 145.444142,97.5869432 164.47833,86.1895073 M259.499697,7.09976373 C121.414227,5.08694322 7.8159364,115.42455 5.80311589,253.539935 C3.77320136,391.633952 114.106535,505.240789 252.230466,507.279251 C390.294569,509.26643 503.914227,398.928824 505.927048,260.834806 C507.969783,122.719422 397.585167,9.10831074 259.499697,7.09976373" id="Shape" fill="#20202A" sketch:type="MSShapeGroup"></path>
    </g>
</svg>